<svg xmlns="http://www.w3.org/2000/svg" width="40" height="39" viewBox="0 0 40 39"><path d="M3121.212,199.651 L3095.015,199.651 C3091.556,199.651 3088.742,196.843 3088.742,193.391 L3088.742,167.26 C3088.742,163.808 3091.556,161 3095.015,161 L3121.212,161 C3124.67,161 3127.484,163.808 3127.484,167.26 L3127.484,193.392 C3127.484,196.844 3124.67,199.651 3121.212,199.651 Z M3101.742,169 L3114.742,169 C3117.50342,169 3119.742,171.238576 3119.742,174 L3119.742,187 C3119.742,189.761424 3117.50342,192 3114.742,192 L3101.742,192 C3098.98058,192 3096.742,189.761424 3096.742,187 L3096.742,174 C3096.742,171.238576 3098.98058,169 3101.742,169 Z M3101.742,166 C3097.32372,166 3093.742,169.581722 3093.742,174 L3093.742,187 C3093.742,191.418278 3097.32372,195 3101.742,195 L3114.742,195 C3119.16028,195 3122.742,191.418278 3122.742,187 L3122.742,174 C3122.742,169.581722 3119.16028,166 3114.742,166 L3101.742,166 Z M3108.242,187.5 C3112.10799,187.5 3115.242,184.365993 3115.242,180.5 C3115.242,176.634007 3112.10799,173.5 3108.242,173.5 C3104.37601,173.5 3101.242,176.634007 3101.242,180.5 C3101.242,184.365993 3104.37601,187.5 3108.242,187.5 Z M3108.242,184.5 C3106.03286,184.5 3104.242,182.709139 3104.242,180.5 C3104.242,178.290861 3106.03286,176.5 3108.242,176.5 C3110.45114,176.5 3112.242,178.290861 3112.242,180.5 C3112.242,182.709139 3110.45114,184.5 3108.242,184.5 Z M3115.742,175 C3116.84657,175 3117.742,174.104569 3117.742,173 C3117.742,171.895431 3116.84657,171 3115.742,171 C3114.63743,171 3113.742,171.895431 3113.742,173 C3113.742,174.104569 3114.63743,175 3115.742,175 Z" transform="translate(-3088 -161)"/></svg>